<?xml version="1.0" encoding="UTF-8" standalone="no"?>
<!DOCTYPE svg PUBLIC "-//W3C//DTD SVG 1.1//EN" "http://www.w3.org/Graphics/SVG/1.1/DTD/svg11.dtd">
<svg width="100%" height="100%" viewBox="0 0 130 130" version="1.1" xmlns="http://www.w3.org/2000/svg" xmlns:xlink="http://www.w3.org/1999/xlink" xml:space="preserve" xmlns:serif="http://www.serif.com/" style="fill-rule:evenodd;clip-rule:evenodd;stroke-linejoin:round;stroke-miterlimit:2;">
    <g transform="matrix(1,0,0,1,-1730.66,-314.158)">
        <g id="Page-2" serif:id="Page 2" transform="matrix(0.227474,0,0,0.981562,1730.66,314.158)">
            <rect x="0" y="0" width="571.495" height="132.442" style="fill:none;"/>
            <clipPath id="_clip1">
                <rect x="0" y="0" width="571.495" height="132.442"/>
            </clipPath>
            <g clip-path="url(#_clip1)">
                <g id="Layer-1" serif:id="Layer 1">
                </g>
                <g transform="matrix(4.31421,0,0,0.999804,-8353,-206.692)">
                    <path d="M1940.25,206.733C1939.16,206.732 1938.12,207.163 1937.36,207.931C1936.59,208.698 1936.16,209.738 1936.16,210.823C1936.16,230.513 1936.18,315.399 1936.18,335.086C1936.18,337.344 1938.02,339.175 1940.27,339.175L2064.51,339.175C2066.77,339.175 2068.6,337.344 2068.6,335.086C2068.61,315.399 2068.62,230.513 2068.63,210.823C2068.63,209.738 2068.2,208.698 2067.43,207.93C2066.66,207.163 2065.62,206.733 2064.54,206.733C2044.84,206.733 1959.94,206.733 1940.25,206.733Z" style="fill:rgb(225,64,69);"/>
                </g>
                <g transform="matrix(4.39612,0,0,1.01878,-7608.19,-320.059)">
                    <path d="M1814.33,331.537L1837.09,354.861L1837.09,417.565C1837.09,422.64 1832.98,426.754 1827.9,426.754C1811.96,426.754 1779.37,426.754 1763.42,426.754C1758.35,426.754 1754.24,422.64 1754.24,417.565C1754.24,399.365 1754.24,358.925 1754.24,340.726C1754.24,335.651 1758.35,331.537 1763.42,331.537L1814.33,331.537Z" style="fill:white;"/>
                </g>
                <g transform="matrix(4.91243,0,0,1.07326,-8518.45,-343.562)">
                    <path d="M1803.73,352.091C1803.73,351.302 1803.44,350.545 1802.91,349.986C1802.38,349.428 1801.67,349.115 1800.93,349.115C1791.66,349.115 1762.11,349.115 1752.84,349.115C1752.1,349.115 1751.38,349.428 1750.86,349.986C1750.33,350.545 1750.03,351.302 1750.03,352.091C1750.03,356.488 1750.03,364.671 1750.03,369.068C1750.03,369.858 1750.33,370.615 1750.86,371.173C1751.38,371.731 1752.1,372.045 1752.84,372.045C1762.11,372.045 1791.66,372.045 1800.93,372.045C1801.67,372.045 1802.38,371.731 1802.91,371.173C1803.44,370.615 1803.73,369.858 1803.73,369.068C1803.73,364.671 1803.73,356.488 1803.73,352.091Z" style="fill:rgb(225,64,69);"/>
                </g>
                <g transform="matrix(7.91861,0,0,1.83511,-13819.6,-598.069)">
                    <g transform="matrix(12,0,0,12,1759.12,353.772)">
                        <path d="M0.39,-0.7C0.453,-0.7 0.508,-0.69 0.555,-0.669C0.602,-0.648 0.638,-0.618 0.663,-0.579C0.688,-0.54 0.701,-0.494 0.701,-0.441C0.701,-0.388 0.688,-0.343 0.663,-0.304C0.638,-0.265 0.602,-0.235 0.555,-0.215C0.508,-0.194 0.453,-0.183 0.39,-0.183L0.268,-0.183L0.268,0L0.07,0L0.07,-0.7L0.39,-0.7ZM0.378,-0.339C0.419,-0.339 0.449,-0.348 0.47,-0.366C0.491,-0.383 0.501,-0.408 0.501,-0.441C0.501,-0.474 0.491,-0.499 0.47,-0.517C0.449,-0.535 0.419,-0.544 0.378,-0.544L0.268,-0.544L0.268,-0.339L0.378,-0.339Z" style="fill:white;fill-rule:nonzero;"/>
                    </g>
                    <g transform="matrix(12,0,0,12,1767.85,353.772)">
                        <path d="M0.07,-0.7L0.401,-0.7C0.478,-0.7 0.546,-0.686 0.605,-0.657C0.664,-0.628 0.71,-0.588 0.743,-0.535C0.776,-0.482 0.792,-0.421 0.792,-0.35C0.792,-0.279 0.776,-0.218 0.743,-0.165C0.71,-0.112 0.664,-0.072 0.605,-0.043C0.546,-0.014 0.478,0 0.401,0L0.07,0L0.07,-0.7ZM0.393,-0.158C0.453,-0.158 0.501,-0.175 0.538,-0.209C0.574,-0.243 0.592,-0.29 0.592,-0.35C0.592,-0.41 0.574,-0.457 0.538,-0.491C0.501,-0.525 0.453,-0.542 0.393,-0.542L0.268,-0.542L0.268,-0.158L0.393,-0.158Z" style="fill:white;fill-rule:nonzero;"/>
                    </g>
                    <g transform="matrix(12,0,0,12,1777.76,353.772)">
                        <path d="M0.268,-0.547L0.268,-0.393L0.577,-0.393L0.577,-0.24L0.268,-0.24L0.268,0L0.07,0L0.07,-0.7L0.619,-0.7L0.619,-0.547L0.268,-0.547Z" style="fill:white;fill-rule:nonzero;"/>
                    </g>
                </g>
                <g transform="matrix(4.39612,0,0,1.01878,-7608.19,-320.059)">
                    <path d="M1814.33,331.54L1837.02,354.791L1823.52,354.791C1818.45,354.791 1814.33,350.677 1814.33,345.602L1814.33,331.54Z" style="fill:white;"/>
                    <path d="M1816.48,329.445C1815.63,328.572 1814.33,328.302 1813.2,328.762C1812.07,329.222 1811.33,330.32 1811.33,331.54L1811.33,345.602C1811.33,352.334 1816.79,357.791 1823.52,357.791C1823.52,357.791 1837.02,357.791 1837.02,357.791C1838.23,357.791 1839.32,357.068 1839.79,355.956C1840.25,354.844 1840.01,353.56 1839.17,352.696L1816.48,329.445ZM1814.33,331.54L1837.02,354.791L1823.52,354.791C1818.45,354.791 1814.33,350.677 1814.33,345.602L1814.33,331.54Z" style="fill:rgb(225,64,69);"/>
                </g>
                <g transform="matrix(-15.7371,0,0,0.648195,1917.85,11.3537)">
                    <rect x="95.063" y="89.633" width="17.295" height="10.488" style="fill:rgb(225,64,69);"/>
                </g>
                <g transform="matrix(-15.7371,0,0,0.648195,1917.85,24.7687)">
                    <rect x="95.063" y="89.633" width="17.295" height="10.488" style="fill:rgb(225,64,69);"/>
                </g>
                <g transform="matrix(-15.7371,0,0,0.648195,1917.85,38.1836)">
                    <rect x="95.063" y="89.633" width="17.295" height="10.488" style="fill:rgb(225,64,69);"/>
                </g>
                <g transform="matrix(1.43962e-16,0.544856,-2.35108,3.33628e-17,564.567,75.1226)">
                    <path d="M48.72,66.584L22.454,66.584C21.343,66.584 20.455,65.684 20.455,64.584L20.455,35.428C20.455,34.329 21.343,33.429 22.454,33.429L48.72,33.429L48.72,22.433C48.72,20.8 50.641,19.745 52.052,20.945L86.695,48.446C87.717,49.257 87.683,50.8 86.661,51.589L51.963,79.135C50.641,80.19 48.72,79.201 48.72,77.58L48.72,66.584Z" style="fill:white;fill-rule:nonzero;"/>
                </g>
                <g transform="matrix(1.43962e-16,0.544856,-2.35108,3.33628e-17,564.567,75.1226)">
                    <path d="M43.11,72.193L22.454,72.193C18.227,72.193 14.845,68.769 14.845,64.584C14.845,64.584 14.845,35.428 14.845,35.428C14.845,31.244 18.227,27.82 22.454,27.82L43.11,27.82L43.11,22.433C43.11,16.244 50.339,12.125 55.686,16.671L55.54,16.551C55.54,16.551 90.182,44.052 90.182,44.052C94.075,47.141 93.983,53.025 90.149,55.982C90.149,55.982 55.451,83.528 55.463,83.518C50.426,87.539 43.11,83.759 43.11,77.58L43.11,72.193ZM48.72,66.584L22.454,66.584C21.343,66.584 20.455,65.684 20.455,64.584L20.455,35.428C20.455,34.329 21.343,33.429 22.454,33.429L48.72,33.429L48.72,22.433C48.72,20.8 50.641,19.745 52.052,20.945L86.695,48.446C87.717,49.257 87.683,50.8 86.661,51.589L51.963,79.135C50.641,80.19 48.72,79.201 48.72,77.58L48.72,66.584Z" style="fill:rgb(225,64,69);"/>
                </g>
            </g>
        </g>
    </g>
</svg>
