<?xml version="1.0" encoding="iso-8859-1"?>
<!-- Generator: Adobe Illustrator 19.0.0, SVG Export Plug-In . SVG Version: 6.00 Build 0)  -->
<svg version="1.1" id="Capa_1" xmlns="http://www.w3.org/2000/svg" xmlns:xlink="http://www.w3.org/1999/xlink" x="0px" y="0px"
	 viewBox="0 0 512.005 512.005" style="enable-background:new 0 0 512.005 512.005;" xml:space="preserve">
<path style="fill:#607D8B;" d="M53.336,149.338h405.333c29.455,0,53.333,23.878,53.333,53.333v149.333
	c0,29.455-23.878,53.333-53.333,53.333H53.336c-29.455,0-53.333-23.878-53.333-53.333V202.671
	C0.002,173.216,23.88,149.338,53.336,149.338z"/>
<g>
	<path style="fill:#CFD8DC;" d="M416.002,0.005H181.336c-5.891,0-10.667,4.776-10.667,10.667v74.667H96.002
		c-5.891,0-10.667,4.776-10.667,10.667v128c0,5.891,4.776,10.667,10.667,10.667h320c5.891,0,10.667-4.776,10.667-10.667V10.671
		C426.669,4.78,421.893,0.005,416.002,0.005z"/>
	<path style="fill:#CFD8DC;" d="M96.002,384.005h320c5.891,0,10.667,4.776,10.667,10.667v106.667
		c0,5.891-4.776,10.667-10.667,10.667h-320c-5.891,0-10.667-4.776-10.667-10.667V394.671
		C85.336,388.78,90.111,384.005,96.002,384.005z"/>
</g>
<path style="fill:#B0BEC5;" d="M185.41,0.815c-3.985-1.654-8.574-0.745-11.627,2.304L88.45,88.453
	c-4.171,4.16-4.179,10.914-0.019,15.085c2.006,2.011,4.731,3.139,7.571,3.134h85.333c5.891,0,10.667-4.776,10.667-10.667V10.671
	C192.002,6.355,189.399,2.464,185.41,0.815z"/>
<circle style="fill:#FFC107;" cx="458.669" cy="202.671" r="10.667"/>
<g>
</g>
<g>
</g>
<g>
</g>
<g>
</g>
<g>
</g>
<g>
</g>
<g>
</g>
<g>
</g>
<g>
</g>
<g>
</g>
<g>
</g>
<g>
</g>
<g>
</g>
<g>
</g>
<g>
</g>
</svg>
