<?xml version="1.0" encoding="UTF-8" standalone="no"?>
<!DOCTYPE svg PUBLIC "-//W3C//DTD SVG 1.1//EN" "http://www.w3.org/Graphics/SVG/1.1/DTD/svg11.dtd">
<svg width="100%" height="100%" viewBox="0 0 130 130" version="1.1" xmlns="http://www.w3.org/2000/svg" xmlns:xlink="http://www.w3.org/1999/xlink" xml:space="preserve" xmlns:serif="http://www.serif.com/" style="fill-rule:evenodd;clip-rule:evenodd;stroke-linejoin:round;stroke-miterlimit:2;">
    <g transform="matrix(1,0,0,1,-1536.75,-314.158)">
        <g id="Page-2" serif:id="Page 2" transform="matrix(0.227474,0,0,0.981562,1536.75,314.158)">
            <rect x="0" y="0" width="571.495" height="132.442" style="fill:none;"/>
            <clipPath id="_clip1">
                <rect x="0" y="0" width="571.495" height="132.442"/>
            </clipPath>
            <g clip-path="url(#_clip1)">
                <g id="Layer-1" serif:id="Layer 1">
                </g>
                <g transform="matrix(4.31421,0,0,0.999804,-8353,-206.692)">
                    <path d="M1940.25,206.733C1939.16,206.732 1938.12,207.163 1937.36,207.931C1936.59,208.698 1936.16,209.738 1936.16,210.823C1936.16,230.513 1936.18,315.399 1936.18,335.086C1936.18,337.344 1938.02,339.175 1940.27,339.175L2064.51,339.175C2066.77,339.175 2068.6,337.344 2068.6,335.086C2068.61,315.399 2068.62,230.513 2068.63,210.823C2068.63,209.738 2068.2,208.698 2067.43,207.93C2066.66,207.163 2065.62,206.733 2064.54,206.733C2044.84,206.733 1959.94,206.733 1940.25,206.733Z" style="fill:rgb(30,113,69);"/>
                </g>
                <g transform="matrix(3.82384,0,0,0.886163,31.3812,4.72315)">
                    <path d="M112.358,44.556L95.063,44.556L95.063,34.068L112.358,34.068L112.358,44.556ZM112.358,58.178L95.063,58.178L95.063,47.699L112.358,47.699L112.358,58.178ZM112.358,71.809L95.063,71.809L95.063,61.321L112.358,61.321L112.358,71.809ZM112.358,85.44L95.063,85.44L95.063,74.952L112.358,74.952L112.358,85.44ZM112.358,99.062L95.063,99.062L95.063,88.583L112.358,88.583L112.358,99.062ZM116.542,28.303L76.709,28.303L76.709,34.067L91.911,34.067L91.911,44.556L76.709,44.556L76.709,47.698L91.911,47.698L91.911,58.178L76.709,58.178L76.709,61.32L91.911,61.32L91.911,71.809L76.709,71.809L76.709,74.951L91.911,74.951L91.911,85.44L76.709,85.44L76.709,88.582L91.911,88.582L91.911,99.062L76.709,99.062L76.709,105.886L116.542,105.886C118.749,105.886 119.164,105.453 119.164,103.255L119.164,30.925C119.164,28.735 118.749,28.303 116.542,28.303" style="fill:white;"/>
                </g>
                <g transform="matrix(3.82384,0,0,0.886163,220.02,48.7833)">
                    <path d="M0,34.757L-5.014,22.018L-10.399,34.06L-17.109,33.556L-9.473,16.818L-16.262,-0.291L-9.428,-0.592L-5.182,11.15L0.283,-1.351L7.363,-1.863L-0.653,16.756L7.725,35.181L0,34.757ZM-35.454,-22.671L-35.454,57.419L24.525,67.819L24.525,-33.062L-35.454,-22.671Z" style="fill:white;"/>
                </g>
                <g transform="matrix(3.82384,0,0,0.886163,249.559,47.133)">
                    <path d="M0,37.043L-7.725,36.619L-12.739,23.88L-18.125,35.922L-24.834,35.418L-17.198,18.68L-23.987,1.571L-17.153,1.271L-12.907,13.012L-7.442,0.511L-0.362,0L-8.378,18.618L0,37.043Z" style="fill:rgb(30,113,69);"/>
                </g>
                <g transform="matrix(-3.82384,0,0,0.886163,824.527,52.0939)">
                    <rect x="95.063" y="35.127" width="17.295" height="10.479" style="fill:rgb(30,113,69);"/>
                </g>
                <g transform="matrix(-3.82384,0,0,0.886163,824.527,27.9433)">
                    <rect x="95.063" y="48.749" width="17.295" height="10.488" style="fill:rgb(30,113,69);"/>
                </g>
                <g transform="matrix(-3.82384,0,0,0.886163,824.527,3.7847)">
                    <rect x="95.063" y="62.38" width="17.295" height="10.488" style="fill:rgb(30,113,69);"/>
                </g>
                <g transform="matrix(-3.82384,0,0,0.886163,824.527,-44.5165)">
                    <rect x="95.063" y="89.633" width="17.295" height="10.488" style="fill:rgb(30,113,69);"/>
                </g>
                <g transform="matrix(-3.82384,0,0,0.886163,824.527,-20.3659)">
                    <rect x="95.063" y="76.011" width="17.295" height="10.479" style="fill:rgb(30,113,69);"/>
                </g>
                <g transform="matrix(1.43962e-16,0.544856,-2.35108,3.33628e-17,564.567,75.1226)">
                    <path d="M48.72,66.584L22.454,66.584C21.343,66.584 20.455,65.684 20.455,64.584L20.455,35.428C20.455,34.329 21.343,33.429 22.454,33.429L48.72,33.429L48.72,22.433C48.72,20.8 50.641,19.745 52.052,20.945L86.695,48.446C87.717,49.257 87.683,50.8 86.661,51.589L51.963,79.135C50.641,80.19 48.72,79.201 48.72,77.58L48.72,66.584Z" style="fill:white;fill-rule:nonzero;"/>
                </g>
                <g transform="matrix(1.43962e-16,0.544856,-2.35108,3.33628e-17,564.567,75.1226)">
                    <path d="M43.11,72.193L22.454,72.193C18.227,72.193 14.845,68.769 14.845,64.584C14.845,64.584 14.845,35.428 14.845,35.428C14.845,31.244 18.227,27.82 22.454,27.82L43.11,27.82L43.11,22.433C43.11,16.244 50.339,12.125 55.686,16.671L55.54,16.551C55.54,16.551 90.182,44.052 90.182,44.052C94.075,47.141 93.983,53.025 90.149,55.982C90.149,55.982 55.451,83.528 55.463,83.518C50.426,87.539 43.11,83.759 43.11,77.58L43.11,72.193ZM48.72,66.584L22.454,66.584C21.343,66.584 20.455,65.684 20.455,64.584L20.455,35.428C20.455,34.329 21.343,33.429 22.454,33.429L48.72,33.429L48.72,22.433C48.72,20.8 50.641,19.745 52.052,20.945L86.695,48.446C87.717,49.257 87.683,50.8 86.661,51.589L51.963,79.135C50.641,80.19 48.72,79.201 48.72,77.58L48.72,66.584Z" style="fill:rgb(30,113,69);"/>
                </g>
            </g>
        </g>
    </g>
</svg>
